<?xml version="1.0" encoding="utf-8"?>
<!-- Generator: Adobe Illustrator 24.2.3, SVG Export Plug-In . SVG Version: 6.00 Build 0)  -->
<svg version="1.1" id="Warstwa_1" xmlns="http://www.w3.org/2000/svg" xmlns:xlink="http://www.w3.org/1999/xlink" x="0px" y="0px"
	 viewBox="0 0 24 24" style="enable-background:new 0 0 24 24;" xml:space="preserve">
<style type="text/css">
	.st0{fill:none;}
	.st1{fill:#FFFFFF;}
</style>
<path class="st0" d="M0,0h24v24H0V0z"/>
<g>
	<polygon class="st1" points="5.5,8.8 5.5,16.8 18.5,16.8 18.5,8.8 12,12.8 	"/>
	<polygon class="st1" points="12,11.2 18.5,7.2 5.5,7.2 	"/>
	<path class="st1" d="M0,0v24h24V0H0z M20.1,16.8c0,0.9-0.7,1.6-1.6,1.6H5.5c-0.9,0-1.6-0.7-1.6-1.6V7.2c0-0.9,0.7-1.6,1.6-1.6h12.9
		c0.9,0,1.6,0.7,1.6,1.6V16.8z"/>
</g>
</svg>
