<?xml version="1.0" encoding="utf-8"?>
<!-- Generator: Adobe Illustrator 24.2.3, SVG Export Plug-In . SVG Version: 6.00 Build 0)  -->
<svg version="1.1" id="Warstwa_1" xmlns:serif="http://www.serif.com/"
	 xmlns="http://www.w3.org/2000/svg" xmlns:xlink="http://www.w3.org/1999/xlink" x="0px" y="0px" viewBox="0 0 841.9 1190.6"
	 style="enable-background:new 0 0 841.9 1190.6;" xml:space="preserve">
<style type="text/css">
	.st0{fill-rule:evenodd;clip-rule:evenodd;fill:#FFFFFF;}
</style>
<path class="st0" d="M739,174.3H102.9H0v102.9v21.6v571.5v43v102.9h102.9H739h102.9V913.4v-43V298.8v-21.6V174.3H739z M203,320.2
	c42.3,0.1,68.2,27.8,69,64.1c0,35.6-26.8,64.1-69.8,64.1h-0.8c-41.4,0-68.2-28.5-68.2-64.1C133.2,348,160.8,320.2,203,320.2z
	 M140.5,870.3V499.2h123.4v371.2H140.5z M708.7,870.3H585.3V671.8c0-49.9-17.9-83.9-62.5-83.9c-34.1,0-54.4,23-63.3,45.1
	c-3.3,7.9-4.1,19-4.1,30.1v207.3H332.1c0,0,1.6-336.3,0-371.2h123.4v52.5c16.4-25.3,45.7-61.3,111.2-61.3c81.2,0,142,53,142,167
	L708.7,870.3L708.7,870.3z"/>
</svg>
