<?xml version="1.0" encoding="utf-8"?>
<!-- Generator: Adobe Illustrator 25.2.1, SVG Export Plug-In . SVG Version: 6.00 Build 0)  -->
<svg version="1.1" id="Layer_1" xmlns="http://www.w3.org/2000/svg" xmlns:xlink="http://www.w3.org/1999/xlink" x="0px" y="0px"
	 viewBox="0 0 841.89 595.28" style="enable-background:new 0 0 841.89 595.28;" xml:space="preserve">
<style type="text/css">
	.st0{fill:none;}
</style>
<g>
	<path class="st0" d="M485.76,293.99c-2.26,0-4.17,0.81-5.74,2.42c-1.57,1.61-2.36,3.84-2.36,6.67c0,2.83,0.79,5.07,2.36,6.73
		c1.57,1.66,3.48,2.49,5.74,2.49c2.25,0,4.17-0.82,5.74-2.46c1.57-1.63,2.36-3.87,2.36-6.7c0-2.83-0.79-5.06-2.36-6.7
		C489.93,294.81,488.02,293.99,485.76,293.99z"/>
	<path class="st0" d="M392.77,293.99c-2.26,0-4.17,0.81-5.74,2.42c-1.57,1.61-2.36,3.84-2.36,6.67c0,2.83,0.79,5.07,2.36,6.73
		c1.57,1.66,3.48,2.49,5.74,2.49c2.25,0,4.17-0.82,5.74-2.46c1.57-1.63,2.36-3.87,2.36-6.7c0-2.83-0.79-5.06-2.36-6.7
		C396.94,294.81,395.03,293.99,392.77,293.99z"/>
	<path class="st0" d="M347.73,293.99c-2.26,0-4.17,0.81-5.74,2.42c-1.57,1.61-2.36,3.84-2.36,6.67c0,2.83,0.79,5.07,2.36,6.73
		c1.57,1.66,3.48,2.49,5.74,2.49c2.25,0,4.17-0.82,5.74-2.46c1.57-1.63,2.36-3.87,2.36-6.7c0-2.83-0.79-5.06-2.36-6.7
		C351.9,294.81,349.99,293.99,347.73,293.99z"/>
	<polygon points="341.7,250.85 352.97,266.37 367.03,266.37 351.51,247.93 366.9,229.36 352.91,229.36 341.7,244.42 341.7,217.29 
		330.36,217.29 330.36,266.37 341.7,266.37 	"/>
	<path d="M377.85,264.88c2.17,1.26,4.67,1.89,7.49,1.89c2.39,0,4.57-0.5,6.53-1.49c1.97-0.99,3.52-2.31,4.68-3.95v5.04h11.34v-37.01
		h-11.34v20.1c0,2.48-0.64,4.4-1.92,5.77c-1.28,1.37-3.03,2.06-5.24,2.06c-2.17,0-3.89-0.69-5.17-2.06
		c-1.28-1.37-1.92-3.29-1.92-5.77v-20.1h-11.28v21.62c0,3.23,0.6,6.04,1.79,8.43C374,261.8,375.68,263.62,377.85,264.88z"/>
	<rect x="416.05" y="217.29" width="11.34" height="49.08"/>
	<rect x="435.62" y="229.36" width="11.34" height="37.01"/>
	<polygon points="466.53,250.85 477.8,266.37 491.87,266.37 476.34,247.93 491.73,229.36 477.74,229.36 466.53,244.42 
		466.53,217.29 455.19,217.29 455.19,266.37 466.53,266.37 	"/>
	<rect x="500.09" y="255.5" width="50.14" height="10.88"/>
	<path d="M355.83,289.88c-1.06-1.72-2.58-3.12-4.55-4.18c-1.97-1.06-4.26-1.59-6.86-1.59c-3.05,0-5.82,0.77-8.29,2.32
		c-2.48,1.55-4.43,3.76-5.87,6.63c-1.44,2.87-2.16,6.21-2.16,10.02s0.72,7.15,2.16,10.05c1.44,2.9,3.39,5.13,5.87,6.7
		c2.47,1.57,5.22,2.36,8.22,2.36c2.61,0,4.9-0.53,6.87-1.59c1.97-1.06,3.5-2.46,4.61-4.18v5.24h11.34v-37.01h-11.34V289.88z
		 M353.47,309.84c-1.57,1.64-3.48,2.46-5.74,2.46c-2.26,0-4.17-0.83-5.74-2.49c-1.57-1.66-2.36-3.9-2.36-6.73
		c0-2.83,0.79-5.05,2.36-6.67c1.57-1.61,3.48-2.42,5.74-2.42c2.25,0,4.17,0.82,5.74,2.45c1.57,1.64,2.36,3.87,2.36,6.7
		C355.83,305.97,355.04,308.21,353.47,309.84z"/>
	<path d="M400.86,289.74c-1.15-1.72-2.73-3.1-4.74-4.11c-2.01-1.01-4.23-1.52-6.67-1.52c-3.05,0-5.82,0.77-8.29,2.32
		c-2.48,1.55-4.43,3.76-5.87,6.63c-1.44,2.87-2.16,6.21-2.16,10.02s0.72,7.15,2.16,10.05c1.44,2.9,3.39,5.13,5.87,6.7
		c2.47,1.57,5.24,2.36,8.29,2.36c2.61,0,4.9-0.53,6.86-1.59c1.97-1.06,3.48-2.48,4.55-4.25v5.31h11.34v-49.08h-11.34V289.74z
		 M398.51,309.84c-1.57,1.64-3.48,2.46-5.74,2.46c-2.26,0-4.17-0.83-5.74-2.49c-1.57-1.66-2.36-3.9-2.36-6.73
		c0-2.83,0.79-5.05,2.36-6.67c1.57-1.61,3.48-2.42,5.74-2.42c2.25,0,4.17,0.82,5.74,2.45c1.57,1.64,2.36,3.87,2.36,6.7
		C400.86,305.97,400.08,308.21,398.51,309.84z"/>
	<path d="M431.77,290.8v-6.17h-11.34v37.01h11.34v-17.18c0-3.05,0.71-5.18,2.12-6.4c1.41-1.21,3.54-1.82,6.37-1.82l3.12-12
		c-2.43,0-4.64,0.59-6.63,1.76C434.76,287.17,433.1,288.77,431.77,290.8z"/>
	<rect x="448.82" y="284.64" width="11.34" height="37.01"/>
	<path d="M493.86,289.88c-1.06-1.72-2.58-3.12-4.55-4.18c-1.97-1.06-4.26-1.59-6.86-1.59c-3.05,0-5.82,0.77-8.29,2.32
		c-2.48,1.55-4.43,3.76-5.87,6.63c-1.44,2.87-2.16,6.21-2.16,10.02s0.72,7.15,2.16,10.05c1.44,2.9,3.39,5.13,5.87,6.7
		c2.47,1.57,5.22,2.36,8.22,2.36c2.61,0,4.9-0.53,6.87-1.59c1.97-1.06,3.5-2.46,4.61-4.18v5.24h11.34v-37.01h-11.34V289.88z
		 M491.5,309.84c-1.57,1.64-3.48,2.46-5.74,2.46c-2.26,0-4.17-0.83-5.74-2.49c-1.57-1.66-2.36-3.9-2.36-6.73
		c0-2.83,0.79-5.05,2.36-6.67c1.57-1.61,3.48-2.42,5.74-2.42c2.25,0,4.17,0.82,5.74,2.45c1.57,1.64,2.36,3.87,2.36,6.7
		C493.86,305.97,493.07,308.21,491.5,309.84z"/>
	<path d="M535.97,284.24c-2.43,0-4.62,0.48-6.57,1.43c-1.95,0.95-3.5,2.24-4.64,3.88v-4.91h-11.34v37.01h11.34v-20.1
		c0-2.47,0.64-4.4,1.92-5.77c1.28-1.37,3.01-2.05,5.17-2.05c2.16,0,3.89,0.69,5.17,2.05c1.28,1.37,1.92,3.3,1.92,5.77v20.1h11.28
		v-21.62c0-4.91-1.29-8.77-3.88-11.57C543.76,285.64,540.3,284.24,535.97,284.24z"/>
</g>
<path d="M416.05,273.71"/>
</svg>
